<?xml version="1.0" encoding="UTF-8"?>
<svg width="220px" height="90px" viewBox="0 0 220 90" version="1.1" xmlns="http://www.w3.org/2000/svg" xmlns:xlink="http://www.w3.org/1999/xlink">
    <title>AssetHead_Logo</title>
    <g id="Elements" stroke="none" stroke-width="1" fill="none" fill-rule="evenodd">
        <g id="Web" transform="translate(-139.000000, -88.000000)">
            <g id="Head_Logo" transform="translate(103.000000, 59.000000)">
                <g id="Group">
                    <g id="Logo">
                        <g id="Group" transform="translate(23.701344, 19.588235)" stroke-linejoin="round">
                            <path d="M57.3419612,13.3660141 L20.4076655,33.8722018 L20.4076655,74.9513277 L57.3419612,95.4575153 L94.2762568,74.9513277 L94.2762568,33.8722018 L85.9961667,29.2750359 L57.3419612,13.3660141 Z" id="Polygon" stroke="#1E116A" stroke-width="2"></path>
                            <path d="M56.9597772,11.1279438 L17.2102311,32.4015798 L17.6087001,75.7400436 L57.7241451,97.6955856 L97.4736912,76.4219497 L97.0752223,33.0834859 L88.1054806,28.174266 L56.9597772,11.1279438 Z" id="Polygon-Copy-4" stroke="#1920A1" stroke-width="2" transform="translate(57.341961, 54.411765) rotate(-10.000000) translate(-57.341961, -54.411765) "></path>
                            <path d="M58.191829,12.221201 L19.689611,34.0526543 L18.8028031,76.2800963 L56.4920933,96.6023284 L94.9943114,74.7708751 L95.8811193,32.5434331 L87.4198115,27.9810585 L58.191829,12.221201 Z" id="Polygon-Copy-5" stroke="#4BE4A5" stroke-width="2" transform="translate(57.341961, 54.411765) rotate(26.000000) translate(-57.341961, -54.411765) "></path>
                            <path d="M58.4205655,11.5389226 L20.3975889,33.9278532 L19.2732006,76.8104991 L56.2633568,97.2846068 L94.2863335,74.8956762 L95.4107217,32.0130303 L87.1085249,27.4177518 L58.4205655,11.5389226 Z" id="Polygon-Copy-6" stroke="#BDE504" stroke-width="2" transform="translate(57.341961, 54.411765) rotate(45.000000) translate(-57.341961, -54.411765) "></path>
                            <path d="M57.3419612,10.4671145 L17.3494276,32.4179486 L17.3494276,76.4055809 L57.3419612,98.3564149 L97.3344948,76.4055809 L97.3344948,32.4179486 L88.389261,27.5081485 L57.3419612,10.4671145 Z" id="Polygon-Copy" stroke-opacity="0.844241696" stroke="#F00D4B" stroke-width="2"></path>
                            <path d="M58.2516431,15.6387704 L23.7147368,35.815056 L22.7624272,74.602465 L56.4322792,93.184759 L90.9691855,73.0084735 L91.9214952,34.2210644 L84.3362357,30.0347816 L58.2516431,15.6387704 Z" id="Polygon-Copy-2" stroke="#920D64" stroke-width="2" transform="translate(57.341961, 54.411765) rotate(34.000000) translate(-57.341961, -54.411765) "></path>
                        </g>
                        <g id="Group-2" transform="translate(58.106521, 63.117647)" fill="#FFFFFF">
                            <path d="M15.0594454,23.2156863 L24.2860071,0 L17.0390909,0 L12.1960298,15.2046396 L7.28226704,0 L0,0 L9.33261408,23.2156863 L15.0594454,23.2156863 Z M31.153176,23.2156863 L31.153176,16.0874896 L33.7239623,16.0874896 L38.1259937,23.2156863 L45.8735689,23.2156863 L40.5911313,14.6814692 C41.7180513,13.9403111 42.5984576,12.9866151 43.2323501,11.8203811 C43.8662426,10.6541471 44.1831889,9.39526834 44.1831889,8.04374482 C44.1831889,7.06280033 43.9718914,6.08730553 43.5492964,5.11726043 C43.1267014,4.14721532 42.5456332,3.28616404 41.806092,2.5341066 C41.0665507,1.78204916 40.180275,1.1716837 39.147265,0.703010218 C38.114255,0.234336739 36.9873349,0 35.7665049,0 L35.7665049,0 L24.2860071,0 L24.2860071,23.2156863 L31.153176,23.2156863 Z M35.9844993,9.94957983 L31.481861,9.94957983 L31.481861,4.97478992 L35.8014652,4.97478992 C36.240747,4.97478992 36.6800288,5.18752764 37.1193106,5.6130031 C37.5585924,6.03847855 37.7782332,6.65487248 37.7782332,7.46218487 C37.7782332,8.24767802 37.589098,8.85861713 37.2108276,9.29500221 C36.8325572,9.73138729 36.4237811,9.94957983 35.9844993,9.94957983 L35.9844993,9.94957983 Z" id="VR" fill-rule="nonzero"></path>
                        </g>
                    </g>
                    <path d="M165.335517,93.9124767 L165.335517,62.9068901 L177.715406,62.9068901 L177.715406,53.1458721 L141.061224,53.1458721 L141.061224,62.9068901 L153.501799,62.9068901 L153.501799,93.9124767 L165.335517,93.9124767 Z M212.731073,93.9124767 L212.731073,84.1514587 L193.857811,84.1514587 L193.857811,77.7206704 L209.51473,77.7206704 L209.51473,68.6486654 L193.857811,68.6486654 L193.857811,62.9068901 L212.184902,62.9068901 L212.184902,53.1458721 L182.024093,53.1458721 L182.024093,93.9124767 L212.731073,93.9124767 Z M237.551538,94.2569832 C239.37211,94.2569832 241.243253,94.0464515 243.164968,93.625388 C245.086683,93.2043244 246.887026,92.5918684 248.565998,91.7880199 C250.24497,90.9841713 251.741885,89.9889303 253.056742,88.8022967 C254.3716,87.6156631 255.352686,86.2759156 256,84.783054 L256,84.783054 L246.350969,79.3283675 C245.986854,80.2470515 245.491254,81.0221912 244.864168,81.6537865 C244.237082,82.2853818 243.529082,82.8021415 242.740168,83.2040658 C241.951253,83.6059901 241.131996,83.8930788 240.282396,84.0653321 C239.432795,84.2375854 238.603424,84.323712 237.794281,84.323712 C236.256909,84.323712 234.871251,84.0270536 233.637308,83.4337368 C232.403365,82.84042 231.361593,82.0461411 230.511993,81.0509001 C229.662393,80.055659 229.015078,78.907304 228.570049,77.6058349 C228.125021,76.3043658 227.902506,74.945479 227.902506,73.5291744 C227.902506,72.2659839 228.094678,70.9932237 228.479021,69.7108939 C228.863364,68.428564 229.449992,67.280209 230.238907,66.2658287 C231.027821,65.2514484 232.03925,64.4284606 233.273194,63.7968653 C234.507137,63.16527 235.973709,62.8494724 237.672909,62.8494724 C238.482052,62.8494724 239.321538,62.9260294 240.191367,63.0791434 C241.061196,63.2322574 241.900682,63.5002069 242.709825,63.8829919 C243.518968,64.265777 244.257311,64.7825367 244.924854,65.4332713 C245.592397,66.0840058 246.128454,66.9069936 246.533026,67.9022346 L246.533026,67.9022346 L255.5752,61.8159528 C254.078285,59.1364577 251.80257,56.983292 248.748055,55.3564556 C245.69354,53.7296193 242.082739,52.9162011 237.915652,52.9162011 C234.436337,52.9162011 231.341364,53.5095179 228.630735,54.6961515 C225.920106,55.882785 223.614048,57.4330643 221.712562,59.3469894 C219.811075,61.2609145 218.364732,63.4236499 217.373532,65.8351955 C216.382332,68.2467412 215.886731,70.6965653 215.886731,73.1846679 C215.886731,75.787606 216.412674,78.3522657 217.46456,80.8786468 C218.516446,83.4050279 220.003247,85.6634595 221.924962,87.6539417 C223.846677,89.6444238 226.132506,91.2425512 228.782449,92.448324 C231.432393,93.6540968 234.355422,94.2569832 237.551538,94.2569832 Z" id="TEC" fill="#FFFFFF" fill-rule="nonzero"></path>
                </g>
            </g>
        </g>
    </g>
</svg>