<?xml version="1.0" encoding="UTF-8"?>
<svg width="207px" height="55px" viewBox="0 0 207 55" version="1.1" xmlns="http://www.w3.org/2000/svg" xmlns:xlink="http://www.w3.org/1999/xlink">
    <title>AssetTecLogo</title>
    <g id="DesignSystem" stroke="none" stroke-width="1" fill="none" fill-rule="evenodd">
        <g id="Artboard" transform="translate(-617.000000, -83.000000)">
            <g id="TecLogo" transform="translate(590.000000, 57.000000)">
                <g id="Asset-25">
                    <g id="Group" opacity="0.8" transform="translate(27.000000, 26.000000)" fill="#FFFFFF" fill-rule="nonzero">
                        <path d="M61.9201533,6.09203822 C61.8460988,7.66146497 61.7191482,9.27643312 61.6239353,10.8318471 L62.5478535,10.8318471 C62.8722828,9.53917197 63.1720273,8.67738854 63.5775639,8.21847134 C63.9831005,7.75955414 64.4732709,7.46528662 66.6984327,7.46528662 L67.9150426,7.46528662 L67.9150426,20.3710191 C67.9150426,22.606051 67.6470358,22.8232484 65.3125554,23.0124204 L65.3125554,23.8707006 L73.7759284,23.8707006 L73.7759284,23.0124204 C71.3074446,22.8232484 71.0641227,22.606051 71.0641227,20.3710191 L71.0641227,7.46528662 L72.5275809,7.46528662 C74.2907836,7.46528662 74.8867462,7.62643312 75.3769165,8.16592357 C75.7824532,8.62484076 76.1068825,9.45859873 76.4348382,10.8073248 L77.3305451,10.7512739 C77.2177002,9.35 77.1048552,7.57738854 77.0731175,6.09203822 L61.9201533,6.09203822 Z" id="Path"></path>
                        <path d="M85.4024872,21.3694268 C83.7486031,23.6570064 81.7138671,24.1964968 80.6876831,24.1964968 C77.1859625,24.1964968 75.2076491,21.5270701 75.2076491,18.4302548 C75.1860919,16.6426854 75.8784282,14.9194629 77.1330664,13.6378981 C78.3003066,12.4257962 79.7884497,11.6971338 81.2272232,11.6971338 C83.5662229,11.7359857 85.4572456,13.6021872 85.5118058,15.9254777 C85.5118058,16.4649682 85.3495911,16.7872611 84.7818399,16.8678344 C84.2916695,16.9484076 80.9556899,17.1936306 78.1098807,17.2987261 C78.1909881,20.4796178 79.9788756,21.961465 81.904293,21.961465 C83.0394247,21.9522237 84.1271339,21.507957 84.9405281,20.7213376 L85.4024872,21.3694268 Z M78.2438842,16.0866242 C79.4922317,16.0866242 80.6876831,16.0621019 81.9325043,16.006051 C82.3662521,16.006051 82.5284668,15.9254777 82.556678,15.494586 C82.556678,14.0933121 81.8231857,12.7480892 80.6312606,12.7480892 C79.5204429,12.7480892 78.4872061,13.9601911 78.2438842,16.0866242 Z" id="Shape"></path>
                        <path d="M97.2935264,21.3414013 C96.0733901,23.0124204 94.2819761,24.1964968 92.6563032,24.1964968 C89.0487905,24.1964968 86.9364736,21.4219745 86.9364736,18.5143312 C86.9577203,16.4450569 87.9750771,14.511002 89.6729642,13.3121019 C90.9442023,12.3338466 92.4887114,11.7697875 94.0950767,11.6971338 C94.9322824,11.6670139 95.7573818,11.9026066 96.4507155,12.3697452 C96.7644622,12.5678039 96.9505476,12.9149152 96.9408859,13.2840764 C96.916201,13.9847134 96.263816,14.660828 95.854753,14.660828 C95.6344507,14.6363249 95.4316305,14.529951 95.2870017,14.3630573 C94.2819761,13.4732484 93.3897956,13.0703822 92.5469847,13.0703822 C91.2175298,13.0703822 89.8916014,14.2544586 89.8916014,17.1375796 C89.8916014,20.7738854 92.4658773,21.961465 93.7706474,21.961465 C94.9096763,21.961465 95.724276,21.6636943 96.8068825,20.7213376 L97.2935264,21.3414013 Z" id="Path"></path>
                        <path d="M106.017853,23.8707006 L106.017853,23.0649682 C107.319097,22.9038217 107.481312,22.7671975 107.481312,20.8544586 L107.481312,16.3318471 C107.481312,14.4191083 106.642027,13.6098726 105.397206,13.6098726 C104.561448,13.6098726 103.77506,14.0407643 103.045094,14.6328025 L103.045094,21.0716561 C103.045094,22.7952229 103.207308,22.9038217 104.480341,23.0649682 L104.480341,23.8707006 L98.1892334,23.8707006 L98.1892334,23.0649682 C99.9242249,22.8512739 100.061755,22.7671975 100.061755,20.9910828 L100.061755,15.4140127 C100.061755,13.7429936 99.9242249,13.6624204 98.5418739,13.3926752 L98.5418739,12.6675159 C100.072054,12.4542805 101.579403,12.1024975 103.045094,11.6165605 L103.045094,13.6624204 C103.584634,13.2840764 104.1277,12.8812102 104.780085,12.4783439 C105.559421,11.966879 106.155383,11.6971338 106.941772,11.6971338 C109.106985,11.6971338 110.439966,13.2595541 110.439966,15.9254777 L110.439966,21.0436306 C110.439966,22.7952229 110.598654,22.8757962 112.090324,23.0649682 L112.090324,23.8707006 L106.017853,23.8707006 Z" id="Path"></path>
                        <path d="M125.46598,17.7296178 C125.46598,22.0700637 122.292215,24.1964968 119.308876,24.1964968 C115.239404,24.1964968 113.098876,21.1802548 113.098876,18.2165605 C113.098876,13.8270701 116.568859,11.6971338 119.389983,11.6971338 C121.011583,11.6613968 122.577484,12.285361 123.724744,13.4244043 C124.872003,14.5634477 125.501012,16.1186754 125.46598,17.7296178 L125.46598,17.7296178 Z M116.487751,17.2742038 C116.487751,20.6127389 117.707888,23.2015924 119.605094,23.2015924 C120.881652,23.2015924 122.073578,22.3398089 122.073578,18.4582803 C122.073578,14.9305732 120.987445,12.6675159 119.037342,12.6675159 C117.707888,12.6675159 116.487751,14.2019108 116.487751,17.2742038 L116.487751,17.2742038 Z" id="Shape"></path>
                        <path d="M126.421635,23.8707006 L126.421635,23.0649682 C128.071993,22.8512739 128.237734,22.7146497 128.237734,20.9630573 L128.237734,8.49171975 C128.237734,6.79267516 128.100204,6.7156051 126.530954,6.55095541 L126.530954,5.7977707 C128.116548,5.60487042 129.684646,5.28980222 131.221073,4.85541401 L131.221073,20.9700637 C131.221073,22.7742038 131.407973,22.910828 133.090068,23.0719745 L133.090068,23.877707 L126.421635,23.8707006 Z" id="Path"></path>
                        <path d="M146.38109,17.7296178 C146.38109,22.0700637 143.207325,24.1964968 140.223986,24.1964968 C136.158041,24.1964968 134.017513,21.1802548 134.017513,18.2165605 C134.017513,13.8270701 137.487496,11.6971338 140.30862,11.6971338 C141.929615,11.6623664 143.49459,12.2867589 144.641073,13.4256932 C145.787557,14.5646274 146.416088,16.1192968 146.38109,17.7296178 L146.38109,17.7296178 Z M137.406388,17.2742038 C137.406388,20.6127389 138.626525,23.2015924 140.527257,23.2015924 C141.80029,23.2015924 142.995741,22.3398089 142.995741,18.4582803 C142.995741,14.9305732 141.913135,12.6675159 139.959506,12.6675159 C138.626525,12.6675159 137.406388,14.2019108 137.406388,17.2742038 L137.406388,17.2742038 Z M139.293015,10.2958599 C139.698552,9.13630573 140.594259,6.44235669 140.784685,5.93089172 C141.052692,5.76974522 143.059216,5.55605096 143.468279,5.6366242 L143.602283,5.90636943 L140.075877,10.6742038 L139.293015,10.2958599 Z" id="Shape"></path>
                        <path d="M160.201073,12.2611465 C159.950667,12.8644398 159.548804,13.3939159 159.033833,13.7990446 L157.489267,13.6904459 C157.975129,14.3144221 158.232586,15.0841754 158.219233,15.8729299 C158.219233,18.7280255 155.726065,20.1292994 153.204685,20.1292994 C152.749827,20.1123652 152.296432,20.0679092 151.847019,19.9961783 C151.566868,20.2146875 151.382431,20.5321887 151.332164,20.8824841 C151.332164,21.3414013 151.794123,21.905414 153.038944,21.905414 C153.962862,21.905414 154.802147,21.8528662 155.673169,21.8528662 C157.379949,21.8528662 159.739114,22.3643312 159.739114,25.110828 C159.739114,28.0745223 156.293816,30.5792994 152.686303,30.5792994 C149.346797,30.5792994 147.749336,28.8031847 147.749336,27.2933121 C147.751821,26.7080176 148.033015,26.1584272 148.507513,25.811465 C149.131687,25.2719745 149.974497,24.7359873 150.623356,24.2770701 C149.792554,24.0317215 149.079591,23.49523 148.616831,22.7671975 C148.359828,22.3771964 148.236171,21.915306 148.264191,21.45 C149.259192,21.0752889 150.157803,20.4853449 150.894889,19.7229299 C149.349915,19.2051626 148.312567,17.7624381 148.320613,16.1426752 C148.320613,13.0984076 151.11,11.6971338 153.44448,11.6971338 C154.420602,11.6882774 155.382534,11.92959 156.237394,12.3977707 C157.619744,12.3417197 159.030307,12.1805732 160.060017,12.0474522 L160.201073,12.2611465 Z M151.261635,24.9251592 C150.762812,25.3199248 150.457441,25.907527 150.422351,26.5401274 C150.422351,27.9133758 151.857598,29.1254777 153.948756,29.1254777 C156.198603,29.1254777 157.446951,27.9414013 157.446951,26.4315287 C157.470096,25.5729071 156.879548,24.8175826 156.036388,24.6273885 C155.250462,24.4119403 154.435262,24.3209081 153.620801,24.3576433 C152.291346,24.3576433 151.695383,24.4907643 151.261635,24.9251592 L151.261635,24.9251592 Z M151.38506,15.7117834 C151.38506,17.6490446 152.146763,19.1589172 153.500903,19.1869427 C154.615247,19.1589172 155.345213,18.0799363 155.345213,16.0621019 C155.345213,14.1738854 154.615247,12.611465 153.22937,12.611465 C152.280767,12.611465 151.38506,13.6904459 151.38506,15.7117834 L151.38506,15.7117834 Z" id="Shape"></path>
                        <path d="M160.998041,23.8707006 L160.998041,23.0649682 C162.623714,22.8757962 162.785928,22.7671975 162.785928,20.8824841 L162.785928,15.4665605 C162.785928,13.7429936 162.623714,13.6378981 161.213152,13.4207006 L161.213152,12.6675159 C162.760717,12.4814707 164.286531,12.1471103 165.769267,11.6691083 L165.769267,20.8824841 C165.769267,22.7146497 165.906797,22.8757962 167.588893,23.0649682 L167.588893,23.8707006 L160.998041,23.8707006 Z M162.352181,8.05732484 C162.365407,7.11034559 163.133945,6.34531676 164.087172,6.33025478 C164.721177,6.30663138 165.317031,6.63076895 165.638489,7.17415202 C165.959947,7.71753509 165.95508,8.39238635 165.625817,8.93113785 C165.296555,9.46988934 164.696086,9.78551195 164.062487,9.75286624 C163.130897,9.72555183 162.381599,8.98272224 162.352181,8.05732484 L162.352181,8.05732484 Z" id="Shape"></path>
                        <path d="M178.749966,21.3414013 C177.52983,23.0124204 175.741942,24.1964968 174.112743,24.1964968 C170.508756,24.1964968 168.389387,21.4219745 168.389387,18.5143312 C168.412022,16.4445663 169.430627,14.5106305 171.129404,13.3121019 C172.40098,12.3344533 173.945289,11.7704673 175.551516,11.6971338 C176.389764,11.667484 177.21584,11.9030032 177.910681,12.3697452 C178.223081,12.5686511 178.407745,12.9156084 178.397325,13.2840764 C178.369114,13.9847134 177.720256,14.660828 177.311193,14.660828 C177.09089,14.6363249 176.88807,14.529951 176.743441,14.3630573 C175.741942,13.4732484 174.842709,13.0703822 174.006951,13.0703822 C172.673969,13.0703822 171.348041,14.2544586 171.348041,17.1375796 C171.348041,20.7738854 173.922317,21.961465 175.227087,21.961465 C176.366116,21.961465 177.180716,21.6636943 178.266848,20.7213376 L178.749966,21.3414013 Z" id="Path"></path>
                        <path d="M191.998671,17.7296178 C191.998671,22.0700637 188.824906,24.1964968 185.845094,24.1964968 C181.775622,24.1964968 179.631567,21.1802548 179.631567,18.2165605 C179.631567,13.8270701 183.105077,11.6971338 185.926201,11.6971338 C187.547196,11.6623664 189.11217,12.2867589 190.258654,13.4256932 C191.405138,14.5646274 192.033669,16.1192968 191.998671,17.7296178 L191.998671,17.7296178 Z M183.020443,17.2742038 C183.020443,20.6127389 184.244106,23.2015924 186.141312,23.2015924 C187.414344,23.2015924 188.609796,22.3398089 188.609796,18.4582803 C188.609796,14.9305732 187.523663,12.6675159 185.570034,12.6675159 C184.244106,12.6675159 183.020443,14.2019108 183.020443,17.2742038 Z" id="Shape"></path>
                        <path d="M76.1068825,47.3910828 C74.448341,47.6229166 72.8089482,47.9741599 71.2016525,48.4420382 L71.2016525,46.7990446 L69.5442419,47.8219745 C69.0650052,48.1600088 68.5039887,48.3655289 67.918569,48.4175159 C65.6405111,48.4175159 62.5513799,46.5047771 62.5513799,42.5707006 C62.5513799,38.8783439 65.8027257,35.9146497 69.8193015,35.9146497 C70.2852229,35.9324315 70.7482452,35.9957952 71.2016525,36.1038217 L71.2016525,32.6531847 C71.2016525,31.0907643 71.0394378,30.9856688 69.2762351,30.7964968 L69.2762351,30.0152866 C70.901908,29.8261146 72.936644,29.0869427 74.1849915,28.7121019 L74.1849915,44.8022293 C74.1849915,46.2840764 74.3472061,46.3926752 75.4298126,46.5292994 L76.1068825,46.6063694 L76.1068825,47.3910828 Z M71.2016525,38.3914013 C70.7685961,37.535342 69.8880166,36.9936819 68.9235945,36.9901274 C68.0560988,36.9901274 65.9155707,37.8273885 65.9155707,41.838535 C65.9155707,45.1245223 67.8656729,46.5012739 69.3009199,46.5012739 C69.9821794,46.4852712 70.6434712,46.2695423 71.2016525,45.8812102 L71.2016525,38.3914013 Z" id="Shape"></path>
                        <path d="M87.183322,45.5834395 C85.5294378,47.8745223 83.4947019,48.4140127 82.4649915,48.4140127 C78.9667973,48.4140127 76.9884838,45.744586 76.9884838,42.6477707 C76.9679184,40.8593489 77.660041,39.1353988 78.9139012,37.8519108 C80.077615,36.6433121 81.5728109,35.9146497 83.0080579,35.9146497 C85.3470577,35.9535017 87.2380804,37.8197031 87.2926405,40.1429936 C87.2926405,40.6824841 87.1304259,41.0047771 86.5591482,41.0853503 C86.0725043,41.1659236 82.7365247,41.4076433 79.8907155,41.516242 C79.9718228,44.6971338 81.7632368,46.1754777 83.6886542,46.1754777 C84.8222181,46.1669993 85.9086966,45.7239744 86.7213629,44.9388535 L87.183322,45.5834395 Z M80.0247189,40.3041401 C81.2730664,40.3041401 82.4649915,40.2796178 83.713339,40.2235669 C84.1470869,40.2235669 84.3093015,40.1429936 84.3375128,39.7121019 C84.3375128,38.310828 83.6040204,36.9656051 82.4120954,36.9656051 C81.2977513,36.9656051 80.2715673,38.1847134 80.0247189,40.3041401 Z" id="Shape"></path>
                        <path d="M108.087853,48.0882166 L108.087853,47.2264331 C110.203697,47.0127389 110.313015,46.8235669 110.313015,44.2101911 L110.231908,33.6305732 L110.122589,33.6305732 L103.912589,47.906051 L103.207308,47.906051 L97.4874787,33.9283439 L97.402845,33.9283439 L97.0502044,41.2009554 C96.9450662,42.6619659 96.9356426,44.1282208 97.0219932,45.5904459 C97.1031005,46.8305732 97.6708518,47.0442675 99.490477,47.2089172 L99.490477,48.0952229 L93.037155,48.0952229 L93.037155,47.2089172 C94.5817206,47.072293 95.0965758,46.6414013 95.2587905,45.6464968 C95.5368605,43.9783596 95.726373,42.2968413 95.8265417,40.6089172 L96.2356048,35.1929936 C96.4789267,31.9630573 96.2885009,31.6898089 93.9046508,31.4761146 L93.9046508,30.5863057 L99.1096252,30.5863057 L104.66724,42.9805732 L110.3377,30.5863057 L115.486252,30.5863057 L115.486252,31.4761146 C113.236405,31.6933121 113.098876,31.8264331 113.155298,34.2786624 L113.426831,44.2171975 C113.479727,46.8305732 113.589046,47.0197452 115.814208,47.2334395 L115.814208,48.0952229 L108.087853,48.0882166 Z" id="Path"></path>
                        <path d="M128.636218,41.9471338 C128.636218,46.2840764 125.462453,48.4140127 122.482641,48.4140127 C118.413169,48.4140127 116.269114,45.3942675 116.269114,42.4340764 C116.269114,38.0410828 119.742624,35.9146497 122.560221,35.9146497 C124.181821,35.8789127 125.747723,36.5028769 126.894982,37.6419203 C128.042241,38.7809636 128.67125,40.3361913 128.636218,41.9471338 L128.636218,41.9471338 Z M119.661516,41.4917197 C119.661516,44.8302548 120.878126,47.4156051 122.778859,47.4156051 C124.051891,47.4156051 125.247342,46.5538217 125.247342,42.6757962 C125.247342,39.144586 124.16121,36.8850318 122.207581,36.8850318 C120.878126,36.8850318 119.661516,38.4194268 119.661516,41.4917197 Z" id="Shape"></path>
                        <path d="M137.300596,48.0882166 L137.300596,47.2929936 C138.60184,47.1283439 138.764055,46.9952229 138.764055,45.0824841 L138.764055,40.5493631 C138.764055,38.633121 137.92477,37.8273885 136.676422,37.8273885 C135.837138,37.8273885 135.05075,38.2582803 134.317257,38.8503185 L134.317257,45.289172 C134.317257,47.0127389 134.482998,47.1178344 135.756031,47.2824841 L135.756031,48.0882166 L129.464923,48.0882166 L129.464923,47.2929936 C131.199915,47.0757962 131.337445,46.9952229 131.337445,45.2191083 L131.337445,39.6315287 C131.337445,37.9605096 131.199915,37.8799363 129.817564,37.6101911 L129.817564,36.8850318 C131.346665,36.6721856 132.852878,36.320392 134.317257,35.8340764 L134.317257,37.8799363 C134.86385,37.5015924 135.40339,37.0987261 136.055775,36.6958599 C136.838637,36.1843949 137.4346,35.9146497 138.224514,35.9146497 C140.393254,35.9146497 141.722709,37.4735669 141.722709,40.1429936 L141.722709,45.2611465 C141.722709,47.0127389 141.884923,47.0933121 143.376593,47.2824841 L143.376593,48.0882166 L137.300596,48.0882166 Z" id="Path"></path>
                        <path d="M149.427905,48.0882166 C149.081812,48.2658923 148.704823,48.376461 148.317087,48.4140127 C146.366985,48.4140127 145.252641,47.4156051 145.252641,45.0719745 L145.252641,37.4490446 L143.489438,37.4490446 L143.351908,37.1267516 L144.113612,36.2369427 L145.249114,36.2369427 L145.249114,34.2716561 L147.855128,32.2783439 L148.207768,32.411465 L148.207768,36.2369427 L151.028893,36.2369427 C151.17673,36.4161729 151.243187,36.6482527 151.212448,36.8779482 C151.181708,37.1076437 151.05652,37.3144125 150.866678,37.4490446 L148.211295,37.4490446 L148.211295,44.1821656 C148.211295,46.3121019 149.184583,46.6063694 149.784072,46.6063694 C150.290932,46.5906749 150.789104,46.4714239 151.24753,46.256051 L151.519063,47.0898089 L149.427905,48.0882166 Z" id="Path"></path>
                        <path d="M162.214651,45.5834395 C160.55724,47.8745223 158.526031,48.4140127 157.492794,48.4140127 C153.998126,48.4140127 152.019813,45.744586 152.019813,42.6477707 C151.997319,40.8589928 152.689724,39.1343388 153.94523,37.8519108 C155.108944,36.6433121 156.600613,35.9146497 158.03586,35.9146497 C160.375474,35.9534363 162.267546,37.8191384 162.323969,40.1429936 C162.323969,40.6824841 162.158228,41.0047771 161.590477,41.0853503 C161.103833,41.1659236 157.767853,41.4076433 154.918518,41.516242 C154.999625,44.6971338 156.791039,46.1754777 158.716457,46.1754777 C159.85117,46.1675382 160.938943,45.7245004 161.752692,44.9388535 L162.214651,45.5834395 Z M155.056048,40.3041401 C156.304395,40.3041401 157.492794,40.2796178 158.744668,40.2235669 C159.178416,40.2235669 159.34063,40.1429936 159.365315,39.7121019 C159.365315,38.310828 158.635349,36.9656051 157.439898,36.9656051 C156.325554,36.9656051 155.295843,38.1847134 155.052521,40.3041401 L155.056048,40.3041401 Z" id="Shape"></path>
                        <path d="M167.997956,38.7697452 C168.921874,37.1792994 170.032692,35.9146497 171.143509,35.9146497 C171.583147,35.8869418 172.0154,36.0368904 172.342109,36.330444 C172.668819,36.6239975 172.862259,37.036244 172.878501,37.4735669 C172.878746,38.2303353 172.419157,38.9124119 171.714787,39.2006369 C171.460717,39.3359646 171.149316,39.3040585 170.928399,39.1200637 C170.46644,38.7417197 170.14201,38.5525478 169.708262,38.5525478 C169.1123,38.5525478 168.459915,39.0640127 167.94506,40.3041401 L167.94506,45.289172 C167.94506,46.9847134 168.082589,47.1178344 170.170221,47.2824841 L170.170221,48.0882166 L163.173833,48.0882166 L163.173833,47.2929936 C164.718399,47.1283439 164.961721,46.9952229 164.961721,45.2996815 L164.961721,39.4984076 C164.961721,37.988535 164.799506,37.8799363 163.417155,37.6101911 L163.417155,36.9095541 C164.956125,36.7001645 166.472021,36.3483153 167.94506,35.8585987 L167.94506,38.7697452 L167.997956,38.7697452 Z" id="Path"></path>
                        <path d="M178.506644,38.7697452 C179.430562,37.1792994 180.54138,35.9146497 181.652198,35.9146497 C182.091246,35.8908553 182.521397,36.0439849 182.845304,36.3393841 C183.169211,36.6347832 183.359491,37.0474795 183.373083,37.4840764 C183.371784,38.2414099 182.910964,38.923247 182.205843,39.2111465 C181.951773,39.3464741 181.640372,39.3145681 181.419455,39.1305732 C180.961022,38.7522293 180.636593,38.5630573 180.202845,38.5630573 C179.603356,38.5630573 178.954497,39.0745223 178.439642,40.3146497 L178.439642,45.2996815 C178.439642,46.9952229 178.577172,47.1283439 180.664804,47.2929936 L180.664804,48.0987261 L173.682521,48.0987261 L173.682521,47.2929936 C175.227087,47.1283439 175.470409,46.9952229 175.470409,45.2996815 L175.470409,39.4984076 C175.470409,37.988535 175.308194,37.8799363 173.925843,37.6101911 L173.925843,36.9095541 C175.463658,36.7001517 176.978383,36.3483004 178.450221,35.8585987 L178.450221,38.7697452 L178.506644,38.7697452 Z" id="Path"></path>
                        <path d="M193.493867,45.5834395 C191.836457,47.8745223 189.805247,48.4140127 188.775537,48.4140127 C185.277342,48.4140127 183.295503,45.744586 183.295503,42.6477707 C183.274337,40.858566 183.967981,39.1339847 185.224446,37.8519108 C186.38816,36.6433121 187.87983,35.9146497 189.315077,35.9146497 C191.653315,35.9552929 193.543301,37.8204715 193.599659,40.1429936 C193.599659,40.6824841 193.433918,41.0047771 192.866167,41.0853503 C192.375997,41.1659236 189.040017,41.4076433 186.194208,41.516242 C186.275315,44.6971338 188.066729,46.1754777 189.992147,46.1754777 C191.126786,46.1671761 192.214429,45.7241915 193.028382,44.9388535 L193.493867,45.5834395 Z M186.335264,40.3041401 C187.580085,40.3041401 188.775537,40.2796178 190.020358,40.2235669 C190.454106,40.2235669 190.619847,40.1429936 190.644532,39.7121019 C190.644532,38.310828 189.911039,36.9656051 188.722641,36.9656051 C187.60477,36.9656051 186.578586,38.1847134 186.335264,40.3041401 L186.335264,40.3041401 Z" id="Shape"></path>
                        <path d="M206.700256,37.0181529 C205.342589,37.2598726 205.102794,37.5015924 204.397513,38.9834395 C203.716917,40.3847134 202.849421,42.6477707 201.167325,46.6343949 C199.351227,50.9713376 198.783475,52.5898089 198.346201,54.0961783 C198.252028,54.5332652 197.846061,54.8331118 197.397598,54.7968153 C196.635894,54.7968153 195.606184,54.0716561 195.606184,53.2343949 C195.606184,52.8035032 195.821295,52.5617834 196.33615,52.211465 C197.251191,51.746226 197.999803,51.0123279 198.480204,50.1095541 C198.739274,49.6764184 198.94864,49.2157915 199.104378,48.7363057 C199.226034,48.3264325 199.197292,47.8869674 199.023271,47.4961783 C197.750239,43.8878981 196.33615,40.2796178 195.715503,38.822293 C195.200647,37.5576433 194.900903,37.2353503 193.546763,37.0181529 L193.546763,36.2369427 L199.834344,36.2369427 L199.834344,37.0181529 C198.614208,37.2598726 198.45552,37.4490446 198.751738,38.366879 L200.945162,44.6130573 C201.625758,42.9735669 202.627257,40.1149682 203.145639,38.5280255 C203.470068,37.5856688 203.226746,37.2598726 201.816184,37.0181529 L201.816184,36.2369427 L206.696729,36.2369427 L206.700256,37.0181529 Z" id="Path"></path>
                        <path d="M26.9523169,0.122611465 C12.8541554,0.138530881 1.19417857,11.0330504 0.315107075,25.0111343 C-0.563964423,38.9892183 9.64037608,51.2407197 23.6269165,52.9996815 L23.6269165,49.2407643 C19.2224361,48.5821656 14.8109029,47.1003185 11.9016184,43.1101911 L42.0277002,43.1101911 C39.0972572,47.1003185 34.703356,48.5821656 30.302402,49.2407643 L30.302402,52.9996815 C44.2915965,51.2403344 54.4966277,38.9846652 53.613674,25.0041534 C52.7307203,11.0236417 41.0637457,0.131189631 26.9628961,0.122611465 L26.9523169,0.122611465 Z M12.2084157,19.3095541 C13.3827087,18.0904459 22.3080409,9.4410828 23.8208688,7.92770701 C27.5130153,4.24585987 26.7830494,1.27165605 26.7830494,1.27165605 C31.0535264,4.50159236 29.484276,7.98726115 27.1674276,10.2187898 C25.2843271,12.0369427 18.6229472,18.6964968 15.5302896,21.6321656 C10.6426917,26.2949045 11.2351278,30.1484076 12.159046,33.4449045 C8.59385009,29.794586 6.96817717,24.7289809 12.2084157,19.3095541 Z M18.6264736,21.2643312 C19.9312436,19.9821656 26.9523169,13.1404459 29.3291141,10.8423567 C34.3189779,6.01496815 34.0298126,4.09522293 34.2660818,3.08980892 C37.7607496,6.65605096 35.6166951,10.2713376 33.7194889,12.1490446 C32.058552,13.7955414 24.2616695,21.6076433 21.0949574,24.4907643 C20.2874106,25.2194268 15.0365928,30.0047771 15.3821806,34.4363057 C12.4411584,30.7509554 13.2275468,26.0812102 18.6264736,21.2643312 L18.6264736,21.2643312 Z M21.6415503,26.8378981 C22.9392675,25.5907643 31.2016354,17.5124204 32.7814651,15.9780255 C37.9018058,11.0280255 37.669063,9.46910828 37.669063,9.46910828 C39.8801193,14.6923567 36.850937,17.5264331 35.0277853,19.3340764 C33.0424191,21.2853503 28.0172913,26.1933121 25.1221124,29.0203822 C17.8541908,36.1318471 20.4531516,41.8770701 20.4531516,41.8770701 C15.8441397,38.4789809 16.8809029,31.4621019 21.6415503,26.8378981 Z M41.0367802,30.4426752 L37.0942589,34.2961783 C32.4076661,38.8503185 32.3794549,41.8840764 32.3794549,41.8840764 C29.7663884,39.0324841 31.3709029,34.289172 34.1849744,31.5531847 C35.3522147,30.4111465 37.5280068,28.3617834 39.0760988,26.9009554 C42.2498637,23.9127389 43.2302044,23.0474522 43.6604259,21.8878981 C44.887615,26.8869427 42.2251789,29.1780255 41.0332538,30.4426752 L41.0367802,30.4426752 Z M41.2131005,21.7792994 C39.4005281,23.5869427 35.8106474,27.0025478 32.9295741,29.8366242 C26.127138,36.016242 26.0178194,39.9958599 26.3845656,41.8630573 C21.3805963,36.0197452 25.3513288,31.6372611 27.8973935,29.1570064 C29.0646337,28.0149682 36.2796593,20.9490446 37.930017,19.383121 C43.7732709,13.8305732 43.7697445,12.1700637 43.7697445,12.1700637 C45.9878535,17.4038217 43.0221465,19.9681529 41.2095741,21.7792994 L41.2131005,21.7792994 Z" id="Shape"></path>
                    </g>
                    <path d="M80,27 C80,12.0883118 68.1355459,0 53.5,0 C38.8644541,0 27,12.0883118 27,27 L80,27 Z" id="Path" fill="#FF0000" fill-rule="nonzero" opacity="0"></path>
                    <path d="M27,26 C12.0883118,26 0,37.8644541 0,52.5 C0,67.1355459 12.0883118,79 27,79 L27,26 Z" id="Path" fill="#FF0000" fill-rule="nonzero" opacity="0"></path>
                    <path d="M27,79 C27,93.9116882 38.8644541,106 53.5,106 C68.1355459,106 80,93.9116882 80,79 L27,79 Z" id="Path" fill="#FF0000" fill-rule="nonzero" opacity="0"></path>
                    <path d="M233,79 C247.911688,79 260,67.1355459 260,52.5 C260,37.8644541 247.911688,26 233,26 L233,79 Z" id="Path" fill="#FF0000" fill-rule="nonzero" opacity="0"></path>
                </g>
            </g>
        </g>
    </g>
</svg>